PathFileType	4	(X/Y/Z)	C:/Users/beibeiliu/ov580/test_trc/capture2\sequence.30_training_dense_left.trc
DataRate	CameraRate	NumFrames	NumMarkers	Units	OrigDataRate	OrigDataStartFrame	OrigNumFrames
120	120	16	19	mm	120	301	400
Frame#	Time	ThumbCMC			ThumbMCP			ThumbIP			ThumbTip			IndexMCP			IndexPIP			IndexTip			MiddleMCP			MiddlePIP			MiddleTip			RingMCP			RingPIP			RingTip			PinkyMCP			PinkyPIP			PinkyTip			BackHand1			BackHand2			BackHand3	
		X0	Y0	Z0	X1	Y1	Z1	X2	Y2	Z2	X3	Y3	Z3	X4	Y4	Z4	X5	Y5	Z5	X6	Y6	Z6	X7	Y7	Z7	X8	Y8	Z8	X9	Y9	Z9	X10	Y10	Z10	X11	Y11	Z11	X12	Y12	Z12	X13	Y13	Z13	X14	Y14	Z14	X15	Y15	Z15	X16	Y16	Z16	X17	Y17	Z17	X18	Y18	Z18	
300	2.5	-201.139	79.6527	22.3765	-200.539	93.2371	-4.00535	-205.891	104.441	-24.4366	-211.795	121.228	-40.5253	-196.5	63.2108	-57.7458	-174.887	71.7845	-73.232	-144.056	67.9852	-74.3695	-189.632	42.003	-59.6683	-164.222	48.7162	-73.7349	-133.354	58.1929	-69.6437	-178.807	26.104	-53.3815	-154.211	34.2986	-59.6988	-123.913	49.9051	-48.2046	-168.507	12.848	-40.0948	-146.24	27.6733	-34.8573	-144.809	47.3664	-11.6234	-211.075	21.4192	-2.78054	-215.111	23.7933	24.2077	-219.304	48.4754	9.28681	
301	2.50833	-201.427	77.6655	18.724	-201.145	93.8815	-4.4137	-205.856	108.249	-22.7597	-211.119	119.238	-37.332	-198.678	62.7625	-54.6542	-177.26	69.0023	-73.796	-146.851	72.1165	-77.8469	-192.965	41.5533	-57.2332	-162.744	46.8934	-75.8168	-133.09	52.6974	-73.7319	-181.018	28.4009	-50.7899	-150.779	32.2069	-59.7238	-125.194	52.9823	-49.3593	-169.048	11.6664	-39.5013	-146.265	29.2896	-32.4946	-148.165	48.5845	-8.94286	-210.306	17.5825	-2.55661	-214.408	20.8106	25.6735	-221.518	51.3777	9.15921	
302	2.51667	-201.949	80.7386	19.6638	-200.651	95.8728	-3.61956	-205.388	107.083	-20.4901	-212.785	123.278	-39.5492	-200.91	68.0461	-55.3934	-180.002	70.187	-75.4094	-146.331	71.7862	-81.1577	-192.533	41.5609	-60.611	-166.554	47.1817	-78.2913	-137.895	54.967	-79.7526	-178.789	28.3146	-54.1882	-151.41	31.336	-59.5342	-124.152	50.9792	-48.5893	-170.655	13.7922	-39.4925	-148.091	31.4285	-33.9698	-150.227	48.3375	-7.38066	-212.164	19.2291	-2.71992	-212.86	19.2686	26.1451	-219.995	52.8681	11.9642	
303	2.525	-200.454	78.9009	20.7339	-200.807	95.9491	-2.03962	-205.031	106.208	-21.5488	-210.953	122.913	-35.972	-201.247	63.9541	-55.6826	-178.296	67.4131	-77.4407	-151.341	69.3816	-84.0872	-194.593	42.5516	-63.7711	-169.289	44.2945	-80.2383	-138.733	54.8721	-84.0191	-181.603	24.5024	-51.2965	-155.784	34.3433	-61.9997	-127.252	47.7471	-51.946	-174.11	14.203	-39.5128	-146.351	29.9597	-32.2041	-149.486	46.0453	-9.33679	-212.726	19.7807	-6.29348	-215.247	18.8649	23.7219	-220.119	51.3685	11.3855	
304	2.53333	-200.495	78.1287	19.2368	-199.203	97.0027	-1.20536	-205.6	105.879	-23.6874	-211.547	119.994	-40.7798	-200.899	65.6484	-56.0075	-179.841	68.065	-78.166	-152.62	66.5989	-86.6818	-196.592	40.0827	-60.6045	-177.089	41.5759	-80.1067	-142.675	47.6926	-89.8697	-182.186	26.4395	-55.2757	-155.372	34.3982	-65.3103	-130.634	43.0252	-57.9506	-172.75	12.8919	-40.6185	-149.886	29.4344	-35.0798	-150.42	47.2529	-9.45223	-215.56	22.2827	-2.30368	-214.534	25.045	24.4572	-221.304	55.4591	9.76101	
305	2.54167	-201.872	78.6292	18.0394	-197.691	92.1828	-1.31212	-206.012	108.65	-23.8696	-210.363	122.004	-40.6096	-201.394	69.4956	-58.946	-184.306	68.0211	-78.9877	-152.916	67.848	-90.1622	-199.756	39.8104	-58.8079	-180.27	42.7581	-81.7384	-147.565	49.0661	-94.328	-184.411	23.8989	-53.8139	-158.381	26.4006	-65.3635	-131.441	43.2911	-60.8498	-175.709	8.84197	-38.7427	-149.141	26.902	-36.1686	-152.757	47.4632	-9.58108	-214.013	21.133	-3.16736	-216.843	20.594	22.9848	-221.263	52.9796	11.6323	
306	2.55	-200.614	78.0516	21.3472	-198.012	91.3737	-3.28291	-206.948	107.131	-26.3313	-210.857	121.027	-38.5729	-203.032	64.808	-57.5069	-183.46	66.632	-80.3555	-157.527	66.6265	-90.5091	-200.329	40.2461	-60.3318	-180.252	41.6838	-82.3519	-147.677	48.803	-95.1777	-183.111	23.2961	-55.0128	-155.175	31.991	-65.855	-130.28	41.3241	-59.6457	-177.347	12.4142	-40.0907	-150.515	28.5444	-36.2872	-151.425	44.7549	-10.27	-214.933	21.5151	-4.78609	-216.1	21.4533	24.5029	-221.65	49.5692	10.5171	
307	2.55833	-203.68	81.026	21.9005	-199.807	95.845	0.506427	-206.618	105.493	-23.0434	-213.066	119.119	-40.1601	-206.159	65.9866	-56.3381	-187.082	65.8602	-78.7381	-161.417	64.745	-89.7247	-199.319	39.4012	-59.7602	-176.738	41.7067	-83.6184	-148.105	48.291	-92.1022	-184.355	27.2741	-54.6385	-156.512	34.2618	-62.8318	-130.353	42.9905	-52.5591	-174.396	11.1703	-40.1268	-150.58	27.0891	-36.4737	-152.776	46.0597	-7.5845	-214.028	19.2713	-2.48903	-216.598	22.6215	24.1859	-223.652	52.9734	11.7085	
308	2.56667	-203.571	77.7969	18.8904	-200.477	93.7052	1.05185	-208.516	108.903	-20.6899	-212.689	119.603	-35.3365	-205.954	66.6708	-55.4174	-187.835	70.211	-79.6218	-161.815	67.1766	-89.7377	-200.121	41.1828	-58.7515	-177.634	45.5761	-79.6894	-147.686	48.9105	-88.983	-181.158	26.3289	-53.0085	-153.696	34.1534	-58.4195	-133.557	50.5586	-43.4595	-174.858	9.98111	-37.1497	-148.551	29.1222	-31.374	-149.575	45.7229	-7.21398	-215.098	21.6733	-2.57472	-214.539	19.62	25.9946	-221.788	48.8047	10.47	
309	2.575	-205.086	77.9067	17.8344	-201.489	89.3597	-2.32376	-210.674	106.058	-23.6636	-218.357	121.179	-38.5153	-206.404	65.015	-54.517	-186.716	65.2107	-77.9978	-161.396	67.6628	-90.8729	-198.546	43.9995	-59.3489	-177.128	48.0816	-77.9028	-143.838	50.6217	-84.9523	-180.971	25.5756	-49.5373	-152.367	40.0272	-52.8157	-132.472	54.1659	-28.3047	-173.154	16.1108	-38.1984	-149.578	31.5401	-30.0808	-154.38	49.0651	-2.93979	-214.579	16.1801	-3.58747	-214.114	20.0096	28.8415	-223.381	47.7853	8.09922	
310	2.58333	-206.093	76.6184	17.7257	-203.99	91.9349	-2.6088	-209.523	102.45	-21.7619	-216.397	119.503	-35.4391	-205.834	65.2575	-55.9648	-186.291	64.3362	-77.8458	-159.942	64.322	-89.5817	-196.281	42.3493	-59.5853	-172.668	44.3301	-77.8738	-140.138	52.8325	-84.4474	-179.113	25.957	-48.9839	-150.32	39.3573	-49.5399	-132.946	51.6506	-21.6074	-170.799	14.9398	-36.9989	-149.124	32.5728	-24.7804	-156.011	48.0046	-1.22109	-213.408	14.3013	-3.98854	-215.931	21.7897	25.4049	-221.936	49.385	12.0605	
311	2.59167	-204.461	75.4802	20.0764	-202.662	89.0026	-4.69864	-211.306	107.321	-21.4661	-217.068	116.987	-38.2101	-203.612	61.058	-57.8313	-185.573	65.8349	-77.9298	-160.221	69.7289	-90.6121	-196.863	43.2666	-59.4731	-170.839	42.9715	-77.4931	-137.866	53.3829	-82.488	-178.945	27.0666	-49.3051	-148.303	36.6313	-48.1094	-133.08	50.8183	-23.2295	-171.299	16.6167	-37.5148	-150.694	33.2318	-26.4749	-156.064	45.3659	2.36656	-212.626	14.7261	-5.20646	-215.2	21.6211	27.8323	-224.111	50.19	5.97403	
312	2.6	-206.986	78.7939	17.1169	-203.958	89.0291	-3.73313	-210.482	103.42	-22.4913	-217.766	117.814	-39.8656	-203.172	65.0091	-57.8168	-181.17	68.5755	-77.8742	-153.746	67.4197	-88.2559	-195.103	39.686	-59.0354	-169.151	49.4416	-77.8971	-135.983	54.4646	-81.0981	-177.893	26.163	-50.7387	-151.15	37.7745	-50.5487	-133.847	52.8675	-26.4037	-170.616	15.0137	-38.4325	-150.881	31.9648	-26.0587	-152.934	44.8614	1.29078	-214.033	16.2682	-7.16728	-215.077	18.4903	26.7951	-221.72	49.0263	10.0114	
313	2.60833	-205.861	79.0781	21.1795	-203.338	88.9626	0.409184	-212.549	104.205	-26.2291	-218.91	119.633	-36.556	-202.403	65.6006	-54.8016	-181.124	66.2688	-74.8007	-152.246	68.3148	-84.9861	-195.294	44.922	-59.7787	-168.158	43.8755	-76.1117	-135.715	53.5849	-79.7995	-178.696	26.3438	-52.1501	-149.298	31.9384	-51.1679	-130.114	49.5035	-30.933	-175.43	11.9994	-36.5912	-150.064	29.157	-30.0005	-152.809	44.855	-2.60809	-217.254	19.0639	-8.30792	-218.608	18.2261	26.7279	-223.257	49.9774	8.43378	
314	2.61667	-206.59	76.6544	21.0682	-204.526	89.2056	-2.75915	-212.377	105.176	-21.1631	-217.396	116.95	-36.7633	-200.742	63.827	-54.8794	-177.264	66.1687	-73.675	-148.139	68.9498	-82.0147	-193.757	41.1244	-57.8754	-168.052	45.9926	-74.3414	-135.491	53.3918	-76.6025	-180.558	21.6238	-50.365	-154.374	34.1909	-54.5411	-130.166	47.3579	-38.0423	-174.777	12.67	-39.7486	-150.121	23.682	-34.1077	-145.099	43.9341	-7.19425	-214.799	15.8021	-8.56473	-217.137	17.2195	26.7626	-222.509	46.0152	6.76183	
315	2.625	-207.373	77.0056	19.985	-204.619	89.2283	-2.19914	-211.71	103.053	-21.7006	-221.707	119.937	-38.4617	-196.502	63.9703	-59.7762	-175.4	68.5015	-75.7783	-147.719	69.6454	-82.3686	-190.497	42.6443	-62.0235	-165.042	47.3302	-76.3442	-133.201	50.9861	-75.5845	-180.278	23.8483	-51.789	-150.878	32.8131	-55.658	-127.221	44.4951	-41.2012	-174.654	10.6177	-40.1373	-149.024	25.5764	-37.7413	-141.311	45.4465	-13.3282	-215.895	19.0614	-6.40324	-217.427	16.4118	24.5644	-223.794	45.8496	7.56314	
